<svg width="817" height="537" viewBox="0 0 817 537" fill="none" xmlns="http://www.w3.org/2000/svg">
<g id="Group 1">
<g id="Union">
<path fill-rule="evenodd" clip-rule="evenodd" d="M362.819 -10.7404L379.097 0.879133L545 519L539.062 520.901L539.036 525.259L8 522L8.0081 520.68L7.96422 520.741L-8.31415 509.122L362.819 -10.7404ZM21.2858 502.081L519.561 505.139L364.599 21.1868L21.2858 502.081Z" fill="#4F46E5"/>
<path d="M379.097 0.879133L379.573 0.726658L379.523 0.568596L379.387 0.472173L379.097 0.879133ZM362.819 -10.7404L363.109 -11.1474L362.702 -11.4379L362.412 -11.031L362.819 -10.7404ZM545 519L545.152 519.476L545.629 519.324L545.476 518.848L545 519ZM539.062 520.901L538.91 520.425L538.565 520.536L538.563 520.898L539.062 520.901ZM539.036 525.259L539.033 525.759L539.533 525.762L539.536 525.262L539.036 525.259ZM8 522L7.50001 521.997L7.49694 522.497L7.99693 522.5L8 522ZM8.0081 520.68L8.50809 520.683L8.51777 519.105L7.60116 520.389L8.0081 520.68ZM7.96422 520.741L7.67373 521.148L8.08066 521.439L8.37116 521.032L7.96422 520.741ZM-8.31415 509.122L-8.72109 508.831L-9.01162 509.238L-8.60464 509.529L-8.31415 509.122ZM21.2858 502.081L20.8789 501.791L20.3188 502.575L21.2828 502.581L21.2858 502.081ZM519.561 505.139L519.558 505.639L520.248 505.643L520.038 504.986L519.561 505.139ZM364.599 21.1868L365.075 21.0344L364.771 20.0851L364.192 20.8963L364.599 21.1868ZM379.387 0.472173L363.109 -11.1474L362.528 -10.3335L378.806 1.28609L379.387 0.472173ZM545.476 518.848L379.573 0.726658L378.621 1.03161L544.524 519.153L545.476 518.848ZM539.215 521.377L545.152 519.476L544.848 518.524L538.91 520.425L539.215 521.377ZM538.563 520.898L538.536 525.256L539.536 525.262L539.562 520.904L538.563 520.898ZM539.039 524.759L8.00307 521.5L7.99693 522.5L539.033 525.759L539.039 524.759ZM8.49999 522.003L8.50809 520.683L7.50811 520.677L7.50001 521.997L8.49999 522.003ZM8.37116 521.032L8.41504 520.97L7.60116 520.389L7.55728 520.451L8.37116 521.032ZM-8.60464 509.529L7.67373 521.148L8.25471 520.334L-8.02366 508.715L-8.60464 509.529ZM362.412 -11.031L-8.72109 508.831L-7.90721 509.412L363.226 -10.4499L362.412 -11.031ZM21.2828 502.581L519.558 505.639L519.564 504.639L21.2889 501.581L21.2828 502.581ZM364.123 21.3393L519.085 505.291L520.038 504.986L365.075 21.0344L364.123 21.3393ZM21.6928 502.372L365.006 21.4773L364.192 20.8963L20.8789 501.791L21.6928 502.372Z" fill="#4F46E5"/>
<path d="M379.097 0.879133L379.573 0.726658L379.523 0.568596L379.387 0.472173L379.097 0.879133ZM362.819 -10.7404L363.109 -11.1474L362.702 -11.4379L362.412 -11.031L362.819 -10.7404ZM545 519L545.152 519.476L545.629 519.324L545.476 518.848L545 519ZM539.062 520.901L538.91 520.425L538.565 520.536L538.563 520.898L539.062 520.901ZM539.036 525.259L539.033 525.759L539.533 525.762L539.536 525.262L539.036 525.259ZM8 522L7.50001 521.997L7.49694 522.497L7.99693 522.5L8 522ZM8.0081 520.68L8.50809 520.683L8.51777 519.105L7.60116 520.389L8.0081 520.68ZM7.96422 520.741L7.67373 521.148L8.08066 521.439L8.37116 521.032L7.96422 520.741ZM-8.31415 509.122L-8.72109 508.831L-9.01162 509.238L-8.60464 509.529L-8.31415 509.122ZM21.2858 502.081L20.8789 501.791L20.3188 502.575L21.2828 502.581L21.2858 502.081ZM519.561 505.139L519.558 505.639L520.248 505.643L520.038 504.986L519.561 505.139ZM364.599 21.1868L365.075 21.0344L364.771 20.0851L364.192 20.8963L364.599 21.1868ZM379.387 0.472173L363.109 -11.1474L362.528 -10.3335L378.806 1.28609L379.387 0.472173ZM545.476 518.848L379.573 0.726658L378.621 1.03161L544.524 519.153L545.476 518.848ZM539.215 521.377L545.152 519.476L544.848 518.524L538.91 520.425L539.215 521.377ZM538.563 520.898L538.536 525.256L539.536 525.262L539.562 520.904L538.563 520.898ZM539.039 524.759L8.00307 521.5L7.99693 522.5L539.033 525.759L539.039 524.759ZM8.49999 522.003L8.50809 520.683L7.50811 520.677L7.50001 521.997L8.49999 522.003ZM8.37116 521.032L8.41504 520.97L7.60116 520.389L7.55728 520.451L8.37116 521.032ZM-8.60464 509.529L7.67373 521.148L8.25471 520.334L-8.02366 508.715L-8.60464 509.529ZM362.412 -11.031L-8.72109 508.831L-7.90721 509.412L363.226 -10.4499L362.412 -11.031ZM21.2828 502.581L519.558 505.639L519.564 504.639L21.2889 501.581L21.2828 502.581ZM364.123 21.3393L519.085 505.291L520.038 504.986L365.075 21.0344L364.123 21.3393ZM21.6928 502.372L365.006 21.4773L364.192 20.8963L20.8789 501.791L21.6928 502.372Z" fill="#4F46E5"/>
<path d="M379.097 0.879133L379.573 0.726658L379.523 0.568596L379.387 0.472173L379.097 0.879133ZM362.819 -10.7404L363.109 -11.1474L362.702 -11.4379L362.412 -11.031L362.819 -10.7404ZM545 519L545.152 519.476L545.629 519.324L545.476 518.848L545 519ZM539.062 520.901L538.91 520.425L538.565 520.536L538.563 520.898L539.062 520.901ZM539.036 525.259L539.033 525.759L539.533 525.762L539.536 525.262L539.036 525.259ZM8 522L7.50001 521.997L7.49694 522.497L7.99693 522.5L8 522ZM8.0081 520.68L8.50809 520.683L8.51777 519.105L7.60116 520.389L8.0081 520.68ZM7.96422 520.741L7.67373 521.148L8.08066 521.439L8.37116 521.032L7.96422 520.741ZM-8.31415 509.122L-8.72109 508.831L-9.01162 509.238L-8.60464 509.529L-8.31415 509.122ZM21.2858 502.081L20.8789 501.791L20.3188 502.575L21.2828 502.581L21.2858 502.081ZM519.561 505.139L519.558 505.639L520.248 505.643L520.038 504.986L519.561 505.139ZM364.599 21.1868L365.075 21.0344L364.771 20.0851L364.192 20.8963L364.599 21.1868ZM379.387 0.472173L363.109 -11.1474L362.528 -10.3335L378.806 1.28609L379.387 0.472173ZM545.476 518.848L379.573 0.726658L378.621 1.03161L544.524 519.153L545.476 518.848ZM539.215 521.377L545.152 519.476L544.848 518.524L538.91 520.425L539.215 521.377ZM538.563 520.898L538.536 525.256L539.536 525.262L539.562 520.904L538.563 520.898ZM539.039 524.759L8.00307 521.5L7.99693 522.5L539.033 525.759L539.039 524.759ZM8.49999 522.003L8.50809 520.683L7.50811 520.677L7.50001 521.997L8.49999 522.003ZM8.37116 521.032L8.41504 520.97L7.60116 520.389L7.55728 520.451L8.37116 521.032ZM-8.60464 509.529L7.67373 521.148L8.25471 520.334L-8.02366 508.715L-8.60464 509.529ZM362.412 -11.031L-8.72109 508.831L-7.90721 509.412L363.226 -10.4499L362.412 -11.031ZM21.2828 502.581L519.558 505.639L519.564 504.639L21.2889 501.581L21.2828 502.581ZM364.123 21.3393L519.085 505.291L520.038 504.986L365.075 21.0344L364.123 21.3393ZM21.6928 502.372L365.006 21.4773L364.192 20.8963L20.8789 501.791L21.6928 502.372Z" fill="#4F46E5"/>
<path d="M379.097 0.879133L379.573 0.726658L379.523 0.568596L379.387 0.472173L379.097 0.879133ZM362.819 -10.7404L363.109 -11.1474L362.702 -11.4379L362.412 -11.031L362.819 -10.7404ZM545 519L545.152 519.476L545.629 519.324L545.476 518.848L545 519ZM539.062 520.901L538.91 520.425L538.565 520.536L538.563 520.898L539.062 520.901ZM539.036 525.259L539.033 525.759L539.533 525.762L539.536 525.262L539.036 525.259ZM8 522L7.50001 521.997L7.49694 522.497L7.99693 522.5L8 522ZM8.0081 520.68L8.50809 520.683L8.51777 519.105L7.60116 520.389L8.0081 520.68ZM7.96422 520.741L7.67373 521.148L8.08066 521.439L8.37116 521.032L7.96422 520.741ZM-8.31415 509.122L-8.72109 508.831L-9.01162 509.238L-8.60464 509.529L-8.31415 509.122ZM21.2858 502.081L20.8789 501.791L20.3188 502.575L21.2828 502.581L21.2858 502.081ZM519.561 505.139L519.558 505.639L520.248 505.643L520.038 504.986L519.561 505.139ZM364.599 21.1868L365.075 21.0344L364.771 20.0851L364.192 20.8963L364.599 21.1868ZM379.387 0.472173L363.109 -11.1474L362.528 -10.3335L378.806 1.28609L379.387 0.472173ZM545.476 518.848L379.573 0.726658L378.621 1.03161L544.524 519.153L545.476 518.848ZM539.215 521.377L545.152 519.476L544.848 518.524L538.91 520.425L539.215 521.377ZM538.563 520.898L538.536 525.256L539.536 525.262L539.562 520.904L538.563 520.898ZM539.039 524.759L8.00307 521.5L7.99693 522.5L539.033 525.759L539.039 524.759ZM8.49999 522.003L8.50809 520.683L7.50811 520.677L7.50001 521.997L8.49999 522.003ZM8.37116 521.032L8.41504 520.97L7.60116 520.389L7.55728 520.451L8.37116 521.032ZM-8.60464 509.529L7.67373 521.148L8.25471 520.334L-8.02366 508.715L-8.60464 509.529ZM362.412 -11.031L-8.72109 508.831L-7.90721 509.412L363.226 -10.4499L362.412 -11.031ZM21.2828 502.581L519.558 505.639L519.564 504.639L21.2889 501.581L21.2828 502.581ZM364.123 21.3393L519.085 505.291L520.038 504.986L365.075 21.0344L364.123 21.3393ZM21.6928 502.372L365.006 21.4773L364.192 20.8963L20.8789 501.791L21.6928 502.372Z" fill="#4F46E5"/>
</g>
<g id="Union_2">
<path fill-rule="evenodd" clip-rule="evenodd" d="M610.859 0.879232L594.669 -10.8633L433.375 211.487L449.565 223.23L596.888 20.1388L797.359 535.816L816 528.571L610.859 0.879232Z" fill="#4F46E5"/>
<path d="M594.669 -10.8633L594.963 -11.2681L594.558 -11.5616L594.264 -11.1569L594.669 -10.8633ZM610.859 0.879232L611.325 0.698065L611.272 0.560894L611.153 0.474485L610.859 0.879232ZM433.375 211.487L432.971 211.194L432.677 211.599L433.082 211.892L433.375 211.487ZM449.565 223.23L449.272 223.635L449.676 223.928L449.97 223.524L449.565 223.23ZM596.888 20.1388L597.354 19.9576L597.022 19.1029L596.483 19.8452L596.888 20.1388ZM797.359 535.816L796.893 535.998L797.074 536.464L797.54 536.282L797.359 535.816ZM816 528.571L816.181 529.037L816.647 528.856L816.466 528.39L816 528.571ZM594.376 -10.4586L610.566 1.28398L611.153 0.474485L594.963 -11.2681L594.376 -10.4586ZM433.78 211.781L595.074 -10.5697L594.264 -11.1569L432.971 211.194L433.78 211.781ZM449.859 222.825L433.669 211.083L433.082 211.892L449.272 223.635L449.859 222.825ZM596.483 19.8452L449.16 222.936L449.97 223.524L597.293 20.4323L596.483 19.8452ZM797.825 535.635L597.354 19.9576L596.422 20.3199L796.893 535.998L797.825 535.635ZM815.819 528.105L797.178 535.35L797.54 536.282L816.181 529.037L815.819 528.105ZM610.393 1.0604L815.534 528.752L816.466 528.39L611.325 0.698065L610.393 1.0604Z" fill="#4F46E5"/>
<path d="M594.669 -10.8633L594.963 -11.2681L594.558 -11.5616L594.264 -11.1569L594.669 -10.8633ZM610.859 0.879232L611.325 0.698065L611.272 0.560894L611.153 0.474485L610.859 0.879232ZM433.375 211.487L432.971 211.194L432.677 211.599L433.082 211.892L433.375 211.487ZM449.565 223.23L449.272 223.635L449.676 223.928L449.97 223.524L449.565 223.23ZM596.888 20.1388L597.354 19.9576L597.022 19.1029L596.483 19.8452L596.888 20.1388ZM797.359 535.816L796.893 535.998L797.074 536.464L797.54 536.282L797.359 535.816ZM816 528.571L816.181 529.037L816.647 528.856L816.466 528.39L816 528.571ZM594.376 -10.4586L610.566 1.28398L611.153 0.474485L594.963 -11.2681L594.376 -10.4586ZM433.78 211.781L595.074 -10.5697L594.264 -11.1569L432.971 211.194L433.78 211.781ZM449.859 222.825L433.669 211.083L433.082 211.892L449.272 223.635L449.859 222.825ZM596.483 19.8452L449.16 222.936L449.97 223.524L597.293 20.4323L596.483 19.8452ZM797.825 535.635L597.354 19.9576L596.422 20.3199L796.893 535.998L797.825 535.635ZM815.819 528.105L797.178 535.35L797.54 536.282L816.181 529.037L815.819 528.105ZM610.393 1.0604L815.534 528.752L816.466 528.39L611.325 0.698065L610.393 1.0604Z" fill="#4F46E5"/>
<path d="M594.669 -10.8633L594.963 -11.2681L594.558 -11.5616L594.264 -11.1569L594.669 -10.8633ZM610.859 0.879232L611.325 0.698065L611.272 0.560894L611.153 0.474485L610.859 0.879232ZM433.375 211.487L432.971 211.194L432.677 211.599L433.082 211.892L433.375 211.487ZM449.565 223.23L449.272 223.635L449.676 223.928L449.97 223.524L449.565 223.23ZM596.888 20.1388L597.354 19.9576L597.022 19.1029L596.483 19.8452L596.888 20.1388ZM797.359 535.816L796.893 535.998L797.074 536.464L797.54 536.282L797.359 535.816ZM816 528.571L816.181 529.037L816.647 528.856L816.466 528.39L816 528.571ZM594.376 -10.4586L610.566 1.28398L611.153 0.474485L594.963 -11.2681L594.376 -10.4586ZM433.78 211.781L595.074 -10.5697L594.264 -11.1569L432.971 211.194L433.78 211.781ZM449.859 222.825L433.669 211.083L433.082 211.892L449.272 223.635L449.859 222.825ZM596.483 19.8452L449.16 222.936L449.97 223.524L597.293 20.4323L596.483 19.8452ZM797.825 535.635L597.354 19.9576L596.422 20.3199L796.893 535.998L797.825 535.635ZM815.819 528.105L797.178 535.35L797.54 536.282L816.181 529.037L815.819 528.105ZM610.393 1.0604L815.534 528.752L816.466 528.39L611.325 0.698065L610.393 1.0604Z" fill="#4F46E5"/>
<path d="M594.669 -10.8633L594.963 -11.2681L594.558 -11.5616L594.264 -11.1569L594.669 -10.8633ZM610.859 0.879232L611.325 0.698065L611.272 0.560894L611.153 0.474485L610.859 0.879232ZM433.375 211.487L432.971 211.194L432.677 211.599L433.082 211.892L433.375 211.487ZM449.565 223.23L449.272 223.635L449.676 223.928L449.97 223.524L449.565 223.23ZM596.888 20.1388L597.354 19.9576L597.022 19.1029L596.483 19.8452L596.888 20.1388ZM797.359 535.816L796.893 535.998L797.074 536.464L797.54 536.282L797.359 535.816ZM816 528.571L816.181 529.037L816.647 528.856L816.466 528.39L816 528.571ZM594.376 -10.4586L610.566 1.28398L611.153 0.474485L594.963 -11.2681L594.376 -10.4586ZM433.78 211.781L595.074 -10.5697L594.264 -11.1569L432.971 211.194L433.78 211.781ZM449.859 222.825L433.669 211.083L433.082 211.892L449.272 223.635L449.859 222.825ZM596.483 19.8452L449.16 222.936L449.97 223.524L597.293 20.4323L596.483 19.8452ZM797.825 535.635L597.354 19.9576L596.422 20.3199L796.893 535.998L797.825 535.635ZM815.819 528.105L797.178 535.35L797.54 536.282L816.181 529.037L815.819 528.105ZM610.393 1.0604L815.534 528.752L816.466 528.39L611.325 0.698065L610.393 1.0604Z" fill="#4F46E5"/>
</g>
</g>
</svg>
